<svg width="57" height="55" viewBox="0 0 57 55" fill="none" xmlns="http://www.w3.org/2000/svg">
<rect width="57" height="55" fill="white"/>
<path d="M28.5 54.5C43.9464 54.5 56.5 42.429 56.5 27.5C56.5 12.571 43.9464 0.5 28.5 0.5C13.0536 0.5 0.5 12.571 0.5 27.5C0.5 42.429 13.0536 54.5 28.5 54.5Z" fill="#032F02" stroke="#032F02"/>
<rect x="13" y="8" width="31" height="39" fill="white"/>
<rect x="13" y="8" width="14" height="39" fill="url(#paint0_linear_0_1)"/>
<circle cx="19.5" cy="13.5" r="4.25" fill="#B3AD1C" fill-opacity="0.5" stroke="#02083D" stroke-width="0.5"/>
<path d="M20.85 13.5C20.85 14.2456 20.2456 14.85 19.5 14.85C18.7544 14.85 18.15 14.2456 18.15 13.5C18.15 12.7544 18.7544 12.15 19.5 12.15C20.2456 12.15 20.85 12.7544 20.85 13.5Z" fill="#02083D" stroke="#02083D" stroke-width="0.3"/>
<path d="M35.7131 12.5H35.0966C35.0601 12.3227 34.9963 12.1669 34.9052 12.0327C34.8157 11.8984 34.7063 11.7857 34.5771 11.6946C34.4495 11.6018 34.3078 11.5322 34.152 11.4858C33.9962 11.4394 33.8338 11.4162 33.6648 11.4162C33.3565 11.4162 33.0773 11.4941 32.8271 11.6499C32.5785 11.8056 32.3804 12.0352 32.233 12.3384C32.0871 12.6417 32.0142 13.0137 32.0142 13.4545C32.0142 13.8954 32.0871 14.2674 32.233 14.5707C32.3804 14.8739 32.5785 15.1035 32.8271 15.2592C33.0773 15.415 33.3565 15.4929 33.6648 15.4929C33.8338 15.4929 33.9962 15.4697 34.152 15.4233C34.3078 15.3769 34.4495 15.3081 34.5771 15.217C34.7063 15.1242 34.8157 15.0107 34.9052 14.8764C34.9963 14.7405 35.0601 14.5848 35.0966 14.4091H35.7131C35.6667 14.6693 35.5821 14.9021 35.4595 15.1076C35.3369 15.3131 35.1844 15.4879 35.0021 15.6321C34.8198 15.7746 34.6152 15.8832 34.3881 15.9577C34.1628 16.0323 33.9216 16.0696 33.6648 16.0696C33.2306 16.0696 32.8445 15.9635 32.5064 15.7514C32.1683 15.5393 31.9023 15.2377 31.7085 14.8466C31.5146 14.4555 31.4176 13.9915 31.4176 13.4545C31.4176 12.9176 31.5146 12.4536 31.7085 12.0625C31.9023 11.6714 32.1683 11.3698 32.5064 11.1577C32.8445 10.9455 33.2306 10.8395 33.6648 10.8395C33.9216 10.8395 34.1628 10.8768 34.3881 10.9513C34.6152 11.0259 34.8198 11.1353 35.0021 11.2795C35.1844 11.422 35.3369 11.596 35.4595 11.8015C35.5821 12.0053 35.6667 12.2382 35.7131 12.5ZM36.9181 10.9091L38.4294 15.1946H38.4891L40.0004 10.9091H40.6468L38.7774 16H38.1411L36.2718 10.9091H36.9181Z" fill="#110787"/>
<line x1="15" y1="22.5" x2="25" y2="22.5" stroke="#181750"/>
<line x1="15" y1="26.5" x2="25" y2="26.5" stroke="#181750"/>
<line x1="29" y1="28.5" x2="42" y2="28.5" stroke="#A2A1B4"/>
<line x1="29" y1="22.5" x2="42" y2="22.5" stroke="#A2A1B4"/>
<line x1="29" y1="24.5" x2="37" y2="24.5" stroke="#A2A1B4"/>
<line x1="29" y1="26.5" x2="42" y2="26.5" stroke="#A2A1B4"/>
<line x1="29" y1="30.5" x2="39" y2="30.5" stroke="#A2A1B4"/>
<line x1="29" y1="32.5" x2="43" y2="32.5" stroke="#A2A1B4"/>
<line x1="29" y1="40.5" x2="43" y2="40.5" stroke="#A2A1B4"/>
<line x1="29" y1="38.5" x2="40" y2="38.5" stroke="#A2A1B4"/>
<line x1="29" y1="36.5" x2="39" y2="36.5" stroke="#A2A1B4"/>
<line x1="29" y1="34.5" x2="33" y2="34.5" stroke="#A2A1B4"/>
<rect x="15" y="30" width="10" height="3" fill="#181750"/>
<rect x="15" y="37" width="10" height="3" fill="#181750"/>
<path d="M17 17C19.6471 12.5 22 17 22 17" stroke="#02083D" stroke-width="0.3" stroke-linecap="round"/>
<defs>
<linearGradient id="paint0_linear_0_1" x1="20" y1="8" x2="20" y2="47" gradientUnits="userSpaceOnUse">
<stop stop-color="#289A71" stop-opacity="0.3"/>
<stop offset="1" stop-color="#00A3FF" stop-opacity="0.4"/>
</linearGradient>
</defs>
</svg>
