<svg width="23" height="14" viewBox="0 0 23 14" fill="none" xmlns="http://www.w3.org/2000/svg">
<g filter="url(#filter0_bi_9_2)">
<mask id="path-1-outside-1_9_2" maskUnits="userSpaceOnUse" x="-1" y="-1" width="25" height="16" fill="black">
<rect fill="white" x="-1" y="-1" width="25" height="16"/>
<path d="M10.56 12.7C10.3867 12.4733 10.24 12.2267 10.12 11.96C10 11.68 9.87333 11.3467 9.74 10.96C9.71333 10.8933 9.63333 10.6933 9.5 10.36C9.38 10.0267 9.24 9.74 9.08 9.5C8.24 9.62 7.55333 9.68 7.02 9.68C6.72667 9.68 6.4 9.67333 6.04 9.66C5.69333 9.63333 5.43333 9.62 5.26 9.62C4.59333 9.56667 4.06 9.54 3.66 9.54C3.5 9.75333 3.36 9.98 3.24 10.22C3.13333 10.46 2.99333 10.82 2.82 11.3C2.58 11.9933 2.37333 12.4867 2.2 12.78C2.08 12.98 1.84667 13.08 1.5 13.08C1.20667 13.08 0.933333 13.02 0.68 12.9C0.44 12.7667 0.32 12.5867 0.32 12.36C0.426667 11.8533 0.593333 11.32 0.82 10.76C1.06 10.1867 1.4 9.42667 1.84 8.48L2.64 6.52C3.08 5.4 3.48 4.44 3.84 3.64C4.21333 2.84 4.7 1.89333 5.3 0.8C5.38 0.639999 5.51333 0.506666 5.7 0.399999C5.88667 0.279999 6.09333 0.219999 6.32 0.219999C6.57333 0.219999 6.75333 0.239999 6.86 0.279999C6.98 0.306666 7.07333 0.36 7.14 0.44C7.20667 0.506666 7.30667 0.653333 7.44 0.88C7.89333 1.58667 8.28 2.31333 8.6 3.06C8.93333 3.80667 9.35333 4.84 9.86 6.16L10.28 7.22C10.6533 8.18 10.9733 8.98667 11.24 9.64C11.52 10.28 11.8267 10.8667 12.16 11.4C12.3733 11.7467 12.48 11.9867 12.48 12.12C12.48 12.44 12.38 12.6867 12.18 12.86C11.9933 13.02 11.7467 13.1 11.44 13.1C11.0533 13.1 10.76 12.9667 10.56 12.7ZM8.5 7.86C8.28667 7.40667 7.98 6.62 7.58 5.5C7.16667 4.3 6.75333 3.34667 6.34 2.64C6.08667 3.28 5.71333 4.10667 5.22 5.12C4.88667 5.74667 4.50667 6.65333 4.08 7.84C4.93333 7.94667 5.85333 8 6.84 8C7.54667 8 8.1 7.95333 8.5 7.86ZM18.913 7.7C19.3796 8.48667 19.8463 9.18667 20.313 9.8C20.793 10.4 21.4196 11.14 22.193 12.02C22.2863 12.1133 22.333 12.22 22.333 12.34C22.333 12.5267 22.2263 12.6867 22.013 12.82C21.813 12.9533 21.5663 13.02 21.273 13.02C20.8596 13.02 20.413 12.8467 19.933 12.5C19.5063 12.1933 19.1263 11.7867 18.793 11.28C18.4596 10.7733 18.073 10.1133 17.633 9.3C17.2863 8.67333 17.0796 8.30667 17.013 8.2C16.493 8.41333 15.6796 8.54667 14.573 8.6C14.573 9.05333 14.613 9.66667 14.693 10.44C14.773 11.24 14.813 11.82 14.813 12.18C14.813 12.42 14.693 12.62 14.453 12.78C14.2263 12.94 13.9663 13.02 13.673 13.02C13.3263 13.02 13.0596 12.88 12.873 12.6C12.6863 12.2267 12.5663 11.78 12.513 11.26C12.4596 10.74 12.433 10.12 12.433 9.4C12.433 8.64 12.4796 7.78 12.573 6.82C12.653 5.75333 12.693 4.96667 12.693 4.46C12.693 4.04667 12.653 3.49333 12.573 2.8C12.5596 2.68 12.5396 2.47333 12.513 2.18C12.4863 1.88667 12.473 1.62 12.473 1.38C12.473 1.19333 12.5396 1.03333 12.673 0.9C12.8196 0.753332 12.973 0.653333 13.133 0.6C14.213 0.426666 15.2663 0.34 16.293 0.34C18.0396 0.34 19.4863 0.666666 20.633 1.32C21.7796 1.97333 22.353 2.96667 22.353 4.3C22.353 4.71333 22.2596 5.11333 22.073 5.5C21.8996 5.87333 21.6596 6.18667 21.353 6.44C20.5396 7.06667 19.7263 7.48667 18.913 7.7ZM20.253 4.24C20.253 3.6 19.913 3.08 19.233 2.68C18.553 2.26667 17.5863 2.06 16.333 2.06C15.773 2.06 15.2196 2.12667 14.673 2.26L14.693 3.28C14.693 3.86667 14.673 4.44 14.633 5C14.593 5.56 14.573 6.16 14.573 6.8C14.7996 6.74667 15.0396 6.71333 15.293 6.7C15.5463 6.67333 15.713 6.65333 15.793 6.64C16.3796 6.58667 16.833 6.52 17.153 6.44C17.753 6.25333 18.2463 6.08667 18.633 5.94C19.033 5.78 19.3996 5.56 19.733 5.28C20.0796 4.98667 20.253 4.64 20.253 4.24Z"/>
</mask>
<path d="M10.56 12.7C10.3867 12.4733 10.24 12.2267 10.12 11.96C10 11.68 9.87333 11.3467 9.74 10.96C9.71333 10.8933 9.63333 10.6933 9.5 10.36C9.38 10.0267 9.24 9.74 9.08 9.5C8.24 9.62 7.55333 9.68 7.02 9.68C6.72667 9.68 6.4 9.67333 6.04 9.66C5.69333 9.63333 5.43333 9.62 5.26 9.62C4.59333 9.56667 4.06 9.54 3.66 9.54C3.5 9.75333 3.36 9.98 3.24 10.22C3.13333 10.46 2.99333 10.82 2.82 11.3C2.58 11.9933 2.37333 12.4867 2.2 12.78C2.08 12.98 1.84667 13.08 1.5 13.08C1.20667 13.08 0.933333 13.02 0.68 12.9C0.44 12.7667 0.32 12.5867 0.32 12.36C0.426667 11.8533 0.593333 11.32 0.82 10.76C1.06 10.1867 1.4 9.42667 1.84 8.48L2.64 6.52C3.08 5.4 3.48 4.44 3.84 3.64C4.21333 2.84 4.7 1.89333 5.3 0.8C5.38 0.639999 5.51333 0.506666 5.7 0.399999C5.88667 0.279999 6.09333 0.219999 6.32 0.219999C6.57333 0.219999 6.75333 0.239999 6.86 0.279999C6.98 0.306666 7.07333 0.36 7.14 0.44C7.20667 0.506666 7.30667 0.653333 7.44 0.88C7.89333 1.58667 8.28 2.31333 8.6 3.06C8.93333 3.80667 9.35333 4.84 9.86 6.16L10.28 7.22C10.6533 8.18 10.9733 8.98667 11.24 9.64C11.52 10.28 11.8267 10.8667 12.16 11.4C12.3733 11.7467 12.48 11.9867 12.48 12.12C12.48 12.44 12.38 12.6867 12.18 12.86C11.9933 13.02 11.7467 13.1 11.44 13.1C11.0533 13.1 10.76 12.9667 10.56 12.7ZM8.5 7.86C8.28667 7.40667 7.98 6.62 7.58 5.5C7.16667 4.3 6.75333 3.34667 6.34 2.64C6.08667 3.28 5.71333 4.10667 5.22 5.12C4.88667 5.74667 4.50667 6.65333 4.08 7.84C4.93333 7.94667 5.85333 8 6.84 8C7.54667 8 8.1 7.95333 8.5 7.86ZM18.913 7.7C19.3796 8.48667 19.8463 9.18667 20.313 9.8C20.793 10.4 21.4196 11.14 22.193 12.02C22.2863 12.1133 22.333 12.22 22.333 12.34C22.333 12.5267 22.2263 12.6867 22.013 12.82C21.813 12.9533 21.5663 13.02 21.273 13.02C20.8596 13.02 20.413 12.8467 19.933 12.5C19.5063 12.1933 19.1263 11.7867 18.793 11.28C18.4596 10.7733 18.073 10.1133 17.633 9.3C17.2863 8.67333 17.0796 8.30667 17.013 8.2C16.493 8.41333 15.6796 8.54667 14.573 8.6C14.573 9.05333 14.613 9.66667 14.693 10.44C14.773 11.24 14.813 11.82 14.813 12.18C14.813 12.42 14.693 12.62 14.453 12.78C14.2263 12.94 13.9663 13.02 13.673 13.02C13.3263 13.02 13.0596 12.88 12.873 12.6C12.6863 12.2267 12.5663 11.78 12.513 11.26C12.4596 10.74 12.433 10.12 12.433 9.4C12.433 8.64 12.4796 7.78 12.573 6.82C12.653 5.75333 12.693 4.96667 12.693 4.46C12.693 4.04667 12.653 3.49333 12.573 2.8C12.5596 2.68 12.5396 2.47333 12.513 2.18C12.4863 1.88667 12.473 1.62 12.473 1.38C12.473 1.19333 12.5396 1.03333 12.673 0.9C12.8196 0.753332 12.973 0.653333 13.133 0.6C14.213 0.426666 15.2663 0.34 16.293 0.34C18.0396 0.34 19.4863 0.666666 20.633 1.32C21.7796 1.97333 22.353 2.96667 22.353 4.3C22.353 4.71333 22.2596 5.11333 22.073 5.5C21.8996 5.87333 21.6596 6.18667 21.353 6.44C20.5396 7.06667 19.7263 7.48667 18.913 7.7ZM20.253 4.24C20.253 3.6 19.913 3.08 19.233 2.68C18.553 2.26667 17.5863 2.06 16.333 2.06C15.773 2.06 15.2196 2.12667 14.673 2.26L14.693 3.28C14.693 3.86667 14.673 4.44 14.633 5C14.593 5.56 14.573 6.16 14.573 6.8C14.7996 6.74667 15.0396 6.71333 15.293 6.7C15.5463 6.67333 15.713 6.65333 15.793 6.64C16.3796 6.58667 16.833 6.52 17.153 6.44C17.753 6.25333 18.2463 6.08667 18.633 5.94C19.033 5.78 19.3996 5.56 19.733 5.28C20.0796 4.98667 20.253 4.64 20.253 4.24Z" fill="#EE4545"/>
<path d="M10.56 12.7L11.36 12.1L11.3544 12.0926L10.56 12.7ZM10.12 11.96L9.20086 12.3539L9.20439 12.3622L9.20808 12.3704L10.12 11.96ZM9.74 10.96L10.6854 10.634L10.6775 10.6111L10.6685 10.5886L9.74 10.96ZM9.5 10.36L8.55911 10.6987L8.56503 10.7152L8.57152 10.7314L9.5 10.36ZM9.08 9.5L9.91205 8.9453L9.56247 8.42092L8.93858 8.51005L9.08 9.5ZM6.04 9.66L5.9633 10.6571L5.98312 10.6586L6.00299 10.6593L6.04 9.66ZM5.26 9.62L5.18026 10.6168L5.22006 10.62H5.26V9.62ZM3.66 9.54V8.54H3.16L2.86 8.94L3.66 9.54ZM3.24 10.22L2.34557 9.77279L2.33541 9.7931L2.32619 9.81386L3.24 10.22ZM2.82 11.3L1.87936 10.9603L1.87501 10.9729L2.82 11.3ZM2.2 12.78L3.05751 13.2945L3.06093 13.2887L2.2 12.78ZM0.68 12.9L0.194357 13.7742L0.222657 13.7899L0.251914 13.8037L0.68 12.9ZM0.32 12.36L-0.65855 12.154L-0.68 12.2559V12.36H0.32ZM0.82 10.76L-0.102506 10.3738L-0.106947 10.3848L0.82 10.76ZM1.84 8.48L2.74683 8.90149L2.75686 8.87992L2.76585 8.8579L1.84 8.48ZM2.64 6.52L3.56593 6.89793L3.57075 6.88565L2.64 6.52ZM3.84 3.64L2.93373 3.21707L2.92808 3.22963L3.84 3.64ZM5.3 0.8L6.17667 1.2811L6.18587 1.26433L6.19443 1.24721L5.3 0.8ZM5.7 0.399999L6.19614 1.26824L6.2188 1.25529L6.24076 1.24118L5.7 0.399999ZM6.86 0.279999L6.50888 1.21633L6.57457 1.24096L6.64307 1.25619L6.86 0.279999ZM7.14 0.44L6.37178 1.08018L6.40082 1.11503L6.43289 1.14711L7.14 0.44ZM7.44 0.88L6.57807 1.38702L6.58787 1.40368L6.59831 1.41995L7.44 0.88ZM8.6 3.06L7.68085 3.45392L7.68381 3.46081L7.68686 3.46765L8.6 3.06ZM9.86 6.16L8.92636 6.51837L8.93032 6.52836L9.86 6.16ZM10.28 7.22L11.212 6.85755L11.2097 6.85164L10.28 7.22ZM11.24 9.64L10.3142 10.0179L10.3189 10.0294L10.3238 10.0408L11.24 9.64ZM12.16 11.4L13.0117 10.8759L13.008 10.87L12.16 11.4ZM12.18 12.86L12.8308 13.6193L12.8349 13.6157L12.18 12.86ZM8.5 7.86L8.72723 8.83384L9.93126 8.5529L9.40482 7.4342L8.5 7.86ZM7.58 5.5L6.63446 5.82569L6.63826 5.83634L7.58 5.5ZM6.34 2.64L7.20319 2.13512L6.16616 0.362138L5.41019 2.27195L6.34 2.64ZM5.22 5.12L6.10287 5.58961L6.11128 5.57381L6.11911 5.55772L5.22 5.12ZM4.08 7.84L3.13898 7.50165L2.71627 8.67732L3.95597 8.83228L4.08 7.84ZM11.3544 12.0926C11.2288 11.9283 11.1212 11.7481 11.0319 11.5496L9.20808 12.3704C9.35879 12.7053 9.54454 13.0183 9.76564 13.3074L11.3544 12.0926ZM11.0391 11.5661C10.9313 11.3145 10.8133 11.0049 10.6854 10.634L8.79463 11.286C8.93339 11.6884 9.0687 12.0455 9.20086 12.3539L11.0391 11.5661ZM10.6685 10.5886C10.6418 10.5219 10.5618 10.3219 10.4285 9.98861L8.57152 10.7314C8.70486 11.0647 8.78486 11.2647 8.81152 11.3314L10.6685 10.5886ZM10.4409 10.0213C10.2994 9.62839 10.1258 9.26585 9.91205 8.9453L8.24795 10.0547C8.35425 10.2141 8.46055 10.4249 8.55911 10.6987L10.4409 10.0213ZM8.93858 8.51005C8.12153 8.62677 7.48682 8.68 7.02 8.68V10.68C7.61985 10.68 8.35847 10.6132 9.22142 10.4899L8.93858 8.51005ZM7.02 8.68C6.74141 8.68 6.42734 8.67366 6.07701 8.66068L6.00299 10.6593C6.37267 10.673 6.71193 10.68 7.02 10.68V8.68ZM6.1167 8.66295C5.76447 8.63585 5.47321 8.62 5.26 8.62V10.62C5.39346 10.62 5.6222 10.6308 5.9633 10.6571L6.1167 8.66295ZM5.33975 8.62318C4.66159 8.56893 4.09833 8.54 3.66 8.54V10.54C4.02167 10.54 4.52508 10.5644 5.18026 10.6168L5.33975 8.62318ZM2.86 8.94C2.66378 9.20163 2.49223 9.47946 2.34557 9.77279L4.13443 10.6672C4.22777 10.4805 4.33622 10.305 4.46 10.14L2.86 8.94ZM2.32619 9.81386C2.20459 10.0875 2.05486 10.4746 1.87945 10.9604L3.76055 11.6396C3.93181 11.1654 4.06208 10.8325 4.15381 10.6261L2.32619 9.81386ZM1.87501 10.9729C1.63783 11.6581 1.45791 12.0702 1.33907 12.2713L3.06093 13.2887C3.28876 12.9032 3.52217 12.3286 3.76499 11.6271L1.87501 10.9729ZM1.34251 12.2655C1.36825 12.2226 1.40202 12.1825 1.44152 12.149C1.48037 12.116 1.51631 12.0965 1.54108 12.0859C1.58549 12.0668 1.5844 12.08 1.5 12.08V14.08C2.01283 14.08 2.67846 13.9262 3.05749 13.2945L1.34251 12.2655ZM1.5 12.08C1.34768 12.08 1.22138 12.0499 1.10809 11.9963L0.251914 13.8037C0.645286 13.9901 1.06566 14.08 1.5 14.08V12.08ZM1.16564 12.0258C1.1484 12.0163 1.1931 12.0369 1.24205 12.1103C1.29696 12.1927 1.32 12.2859 1.32 12.36H-0.68C-0.68 13.0325 -0.283586 13.5086 0.194357 13.7742L1.16564 12.0258ZM1.29855 12.566C1.39123 12.1258 1.53888 11.6492 1.74695 11.1352L-0.106947 10.3848C-0.352213 10.9908 -0.537901 11.5809 -0.65855 12.154L1.29855 12.566ZM1.74244 11.1461C1.97526 10.59 2.30916 9.84315 2.74683 8.90149L0.933165 8.05851C0.49084 9.01018 0.144737 9.78338 -0.102441 10.3739L1.74244 11.1461ZM2.76585 8.8579L3.56585 6.8979L1.71415 6.1421L0.914152 8.1021L2.76585 8.8579ZM3.57075 6.88565C4.00684 5.77562 4.40048 4.83135 4.75192 4.05036L2.92808 3.22963C2.55952 4.04865 2.15316 5.02438 1.70925 6.15435L3.57075 6.88565ZM4.74618 4.06289C5.10743 3.28878 5.58325 2.36244 6.17667 1.2811L4.42333 0.318902C3.81675 1.42422 3.31923 2.39122 2.93382 3.21711L4.74618 4.06289ZM6.19443 1.24721C6.18946 1.25715 6.18402 1.26591 6.17874 1.27317C6.17349 1.28038 6.16924 1.28497 6.16711 1.28711C6.16286 1.29136 6.1694 1.28352 6.19614 1.26824L5.20386 -0.468244C4.88088 -0.283682 4.59036 -0.0167836 4.40557 0.352786L6.19443 1.24721ZM6.24076 1.24118C6.26251 1.2272 6.28074 1.22 6.32 1.22V-0.780001C5.90593 -0.780001 5.51083 -0.667198 5.15924 -0.441179L6.24076 1.24118ZM6.32 1.22C6.42309 1.22 6.49244 1.2242 6.53457 1.22888C6.55495 1.23115 6.56304 1.23289 6.56139 1.23254C6.56072 1.2324 6.54101 1.22838 6.50888 1.21633L7.21113 -0.656329C6.92157 -0.764915 6.58255 -0.780001 6.32 -0.780001V1.22ZM6.64307 1.25619C6.6189 1.25082 6.57579 1.23792 6.52386 1.20824C6.47035 1.17767 6.41728 1.13478 6.37178 1.08018L7.90822 -0.200186C7.6756 -0.479327 7.37239 -0.63053 7.07693 -0.696187L6.64307 1.25619ZM6.43289 1.14711C6.41134 1.12555 6.40267 1.11354 6.40823 1.12064C6.41242 1.12601 6.42244 1.13938 6.43877 1.16334C6.47186 1.21186 6.51787 1.28469 6.57807 1.38702L8.30193 0.372981C8.1763 0.159394 8.0173 -0.0969163 7.84711 -0.267107L6.43289 1.14711ZM6.59831 1.41995C7.02283 2.08172 7.38331 2.75965 7.68085 3.45392L9.51915 2.66608C9.17669 1.86701 8.76384 1.09162 8.28169 0.340045L6.59831 1.41995ZM7.68686 3.46765C8.00958 4.19054 8.42226 5.20489 8.92641 6.51835L10.7936 5.80165C10.2844 4.47511 9.85709 3.42279 9.51314 2.65235L7.68686 3.46765ZM8.93032 6.52836L9.35032 7.58836L11.2097 6.85164L10.7897 5.79164L8.93032 6.52836ZM9.348 7.58245C9.72252 8.5455 10.0447 9.35769 10.3142 10.0179L12.1658 9.2621C11.902 8.61564 11.5842 7.8145 11.212 6.85755L9.348 7.58245ZM10.3238 10.0408C10.6213 10.7207 10.9502 11.3511 11.312 11.93L13.008 10.87C12.7032 10.3822 12.4187 9.83935 12.1562 9.23918L10.3238 10.0408ZM11.3083 11.9241C11.4029 12.0777 11.4579 12.1825 11.4862 12.2461C11.5 12.2773 11.5015 12.2854 11.4985 12.2747C11.4968 12.2688 11.48 12.2113 11.48 12.12H13.48C13.48 11.8346 13.3795 11.5816 13.3138 11.4339C13.2354 11.2575 13.1305 11.069 13.0117 10.8759L11.3083 11.9241ZM11.48 12.12C11.48 12.1767 11.4712 12.1868 11.4783 12.1693C11.4818 12.1605 11.488 12.1483 11.4975 12.135C11.507 12.1217 11.517 12.1113 11.5251 12.1043L12.8349 13.6157C13.2997 13.2129 13.48 12.6637 13.48 12.12H11.48ZM11.5292 12.1007C11.5343 12.0964 11.5397 12.0927 11.5443 12.0902C11.5487 12.0877 11.55 12.0876 11.5465 12.0888C11.5391 12.0912 11.5072 12.1 11.44 12.1V14.1C11.9244 14.1 12.4214 13.9702 12.8308 13.6193L11.5292 12.1007ZM11.44 12.1C11.3613 12.1 11.3372 12.0866 11.3438 12.0896C11.3467 12.091 11.352 12.0939 11.3573 12.0982C11.3625 12.1025 11.3632 12.1042 11.36 12.1L9.76 13.3C10.1807 13.861 10.7958 14.1 11.44 14.1V12.1ZM9.40482 7.4342C9.21416 7.02905 8.92154 6.28311 8.52174 5.16366L6.63826 5.83634C7.03846 6.95689 7.35918 7.78428 7.59518 8.2858L9.40482 7.4342ZM8.52548 5.17433C8.10102 3.94203 7.66269 2.92072 7.20319 2.13512L5.47681 3.14488C5.84398 3.77261 6.23231 4.65797 6.63452 5.82567L8.52548 5.17433ZM5.41019 2.27195C5.17018 2.8783 4.80914 3.67939 4.32089 4.68228L6.11911 5.55772C6.61753 4.53394 7.00315 3.6817 7.26981 3.00805L5.41019 2.27195ZM4.33713 4.65039C3.97042 5.33979 3.57148 6.29875 3.13898 7.50165L5.02102 8.17834C5.44185 7.00791 5.80291 6.15354 6.10287 5.58961L4.33713 4.65039ZM3.95597 8.83228C4.85591 8.94477 5.81777 9 6.84 9V7C5.8889 7 5.01076 6.94856 4.20404 6.84772L3.95597 8.83228ZM6.84 9C7.57685 9 8.21818 8.95262 8.72723 8.83384L8.27277 6.88616C7.98182 6.95405 7.51649 7 6.84 7V9ZM18.913 7.7L18.6593 6.73272L17.3761 7.06929L18.0529 8.2102L18.913 7.7ZM20.313 9.8L19.5171 10.4055L19.5245 10.4152L19.5321 10.4247L20.313 9.8ZM22.193 12.02L21.4418 12.6801L21.4631 12.7043L21.4859 12.7271L22.193 12.02ZM22.013 12.82L21.483 11.972L21.4705 11.9798L21.4583 11.9879L22.013 12.82ZM19.933 12.5L20.5185 11.6893L20.5166 11.688L19.933 12.5ZM17.633 9.3L18.5126 8.82416L18.508 8.81594L17.633 9.3ZM17.013 8.2L17.861 7.67L17.4139 6.95464L16.6334 7.27483L17.013 8.2ZM14.573 8.6L14.5248 7.60116L13.573 7.64703V8.6H14.573ZM14.693 10.44L15.688 10.3405L15.6877 10.3371L14.693 10.44ZM14.453 12.78L13.8983 11.9479L13.8872 11.9553L13.8763 11.963L14.453 12.78ZM12.873 12.6L11.9785 13.0472L12.0064 13.1029L12.0409 13.1547L12.873 12.6ZM12.513 11.26L13.5078 11.158L12.513 11.26ZM12.573 6.82L13.5683 6.91677L13.5693 6.90579L13.5702 6.89479L12.573 6.82ZM12.573 2.8L11.5791 2.91043L11.5796 2.91462L12.573 2.8ZM12.513 2.18L13.5089 2.08946L13.5089 2.08946L12.513 2.18ZM12.673 0.9L13.3801 1.60711L13.3801 1.60711L12.673 0.9ZM13.133 0.6L12.9745 -0.387365L12.894 -0.374452L12.8167 -0.348685L13.133 0.6ZM20.633 1.32L21.128 0.451135L21.128 0.451135L20.633 1.32ZM22.073 5.5L21.1724 5.06525L21.1691 5.07204L21.166 5.07889L22.073 5.5ZM21.353 6.44L21.9633 7.23214L21.9768 7.22178L21.9898 7.21096L21.353 6.44ZM19.233 2.68L18.7136 3.53452L18.7197 3.53827L18.7259 3.54193L19.233 2.68ZM14.673 2.26L14.436 1.28848L13.6575 1.47837L13.6732 2.2796L14.673 2.26ZM14.693 3.28H15.693V3.2702L15.6928 3.2604L14.693 3.28ZM14.633 5L15.6304 5.07125L15.6304 5.07125L14.633 5ZM14.573 6.8H13.573V8.0626L14.802 7.77342L14.573 6.8ZM15.293 6.7L15.3455 7.69862L15.3716 7.69724L15.3977 7.69451L15.293 6.7ZM15.793 6.64L15.7024 5.64411L15.6653 5.64748L15.6286 5.65361L15.793 6.64ZM17.153 6.44L17.3955 7.41014L17.423 7.40327L17.45 7.39486L17.153 6.44ZM18.633 5.94L18.9876 6.875L18.996 6.87181L19.0044 6.86848L18.633 5.94ZM19.733 5.28L20.3762 6.04571L20.3789 6.04339L19.733 5.28ZM18.0529 8.2102C18.5357 9.02396 19.0234 9.75667 19.5171 10.4055L21.1088 9.19448C20.6692 8.61666 20.2236 7.94938 19.773 7.1898L18.0529 8.2102ZM19.5321 10.4247C20.0253 11.0412 20.663 11.7939 21.4418 12.6801L22.9441 11.3599C22.1763 10.4861 21.5606 9.75879 21.0938 9.1753L19.5321 10.4247ZM21.4859 12.7271C21.4561 12.6973 21.4147 12.646 21.3818 12.5708C21.3481 12.4938 21.333 12.4136 21.333 12.34H23.333C23.333 11.927 23.1604 11.5732 22.9001 11.3129L21.4859 12.7271ZM21.333 12.34C21.333 12.2297 21.3682 12.1243 21.4209 12.0453C21.4666 11.9768 21.5047 11.9584 21.483 11.972L22.543 13.668C22.9351 13.4229 23.333 12.987 23.333 12.34H21.333ZM21.4583 11.9879C21.4556 11.9897 21.4128 12.02 21.273 12.02V14.02C21.7198 14.02 22.1703 13.917 22.5677 13.6521L21.4583 11.9879ZM21.273 12.02C21.1431 12.02 20.899 11.9642 20.5185 11.6893L19.3475 13.3107C19.9269 13.7291 20.5761 14.02 21.273 14.02V12.02ZM20.5166 11.688C20.2033 11.4628 19.9048 11.1505 19.6284 10.7304L17.9576 11.8296C18.3479 12.4229 18.8094 12.9239 19.3493 13.312L20.5166 11.688ZM19.6284 10.7304C19.3167 10.2566 18.9451 9.62388 18.5125 8.82418L16.7534 9.77582C17.2008 10.6028 17.6026 11.2901 17.9576 11.8296L19.6284 10.7304ZM18.508 8.81594C18.169 8.20318 17.9456 7.80547 17.861 7.67L16.165 8.73C16.2136 8.80787 16.4036 9.14348 16.7579 9.78406L18.508 8.81594ZM16.6334 7.27483C16.2778 7.42074 15.606 7.54905 14.5248 7.60116L14.6211 9.59884C15.7533 9.54428 16.7082 9.40592 17.3925 9.12517L16.6334 7.27483ZM13.573 8.6C13.573 9.10345 13.6169 9.75579 13.6983 10.5429L15.6877 10.3371C15.6091 9.57754 15.573 9.00322 15.573 8.6H13.573ZM13.6979 10.5395C13.7776 11.3365 13.813 11.8738 13.813 12.18H15.813C15.813 11.7662 15.7683 11.1435 15.688 10.3405L13.6979 10.5395ZM13.813 12.18C13.813 12.1558 13.8161 12.1245 13.8257 12.0894C13.8353 12.0541 13.8495 12.0222 13.8655 11.9955C13.8975 11.9421 13.9236 11.9311 13.8983 11.9479L15.0077 13.6121C15.4614 13.3096 15.813 12.8251 15.813 12.18H13.813ZM13.8763 11.963C13.8283 11.9969 13.7723 12.02 13.673 12.02V14.02C14.1603 14.02 14.6243 13.8831 15.0297 13.597L13.8763 11.963ZM13.673 12.02C13.6537 12.02 13.6472 12.0181 13.6505 12.0188C13.6544 12.0197 13.6646 12.0227 13.6778 12.0296C13.6911 12.0366 13.7013 12.0444 13.7076 12.0502C13.7135 12.0556 13.7119 12.0557 13.705 12.0453L12.0409 13.1547C12.4197 13.7228 13.0041 14.02 13.673 14.02V12.02ZM13.7674 12.1528C13.6465 11.9109 13.5517 11.5869 13.5078 11.158L11.5182 11.362C11.5809 11.9731 11.7261 12.5424 11.9785 13.0472L13.7674 12.1528ZM13.5078 11.158C13.4589 10.6818 13.433 10.0976 13.433 9.4H11.433C11.433 10.1424 11.4604 10.7982 11.5182 11.362L13.5078 11.158ZM13.433 9.4C13.433 8.67953 13.4773 7.8527 13.5683 6.91677L11.5777 6.72323C11.482 7.7073 11.433 8.60047 11.433 9.4H13.433ZM13.5702 6.89479C13.6505 5.82421 13.693 5.00628 13.693 4.46H11.693C11.693 4.92705 11.6555 5.68246 11.5758 6.74521L13.5702 6.89479ZM13.693 4.46C13.693 3.99122 13.6482 3.39472 13.5664 2.68537L11.5796 2.91462C11.6577 3.59194 11.693 4.10212 11.693 4.46H13.693ZM13.5669 2.68957C13.5547 2.58058 13.5355 2.38288 13.5089 2.08946L11.5171 2.27054C11.5437 2.56379 11.5645 2.77942 11.5791 2.91043L13.5669 2.68957ZM13.5089 2.08946C13.4843 1.81977 13.473 1.58391 13.473 1.38H11.473C11.473 1.65609 11.4883 1.95357 11.5171 2.27054L13.5089 2.08946ZM13.473 1.38C13.473 1.40843 13.4673 1.45362 13.446 1.50462C13.4249 1.55541 13.3976 1.58958 13.3801 1.60711L11.9659 0.192892C11.6471 0.511622 11.473 0.925104 11.473 1.38H13.473ZM13.3801 1.60711C13.4417 1.54544 13.4665 1.54293 13.4492 1.54868L12.8167 -0.348685C12.4795 -0.236264 12.1975 -0.0387702 11.9659 0.192894L13.3801 1.60711ZM13.2914 1.58736C14.3224 1.4219 15.3227 1.34 16.293 1.34V-0.66C15.2099 -0.66 14.1035 -0.568565 12.9745 -0.387365L13.2914 1.58736ZM16.293 1.34C17.9204 1.34 19.1832 1.64489 20.1379 2.18886L21.128 0.451135C19.7894 -0.311555 18.1589 -0.66 16.293 -0.66V1.34ZM20.1379 2.18886C20.9684 2.66205 21.353 3.32136 21.353 4.3H23.353C23.353 2.61197 22.5909 1.28461 21.128 0.451135L20.1379 2.18886ZM21.353 4.3C21.353 4.55688 21.2962 4.80875 21.1724 5.06525L22.9735 5.93475C23.223 5.41791 23.353 4.86978 23.353 4.3H21.353ZM21.166 5.07889C21.0532 5.32176 20.9037 5.51406 20.7161 5.66904L21.9898 7.21096C22.4156 6.85928 22.7461 6.4249 22.98 5.92111L21.166 5.07889ZM20.7426 5.64786C20.0124 6.21046 19.318 6.55994 18.6593 6.73272L19.1667 8.66728C20.1346 8.41339 21.0668 7.92287 21.9633 7.23214L20.7426 5.64786ZM21.253 4.24C21.253 3.159 20.6425 2.34898 19.74 1.81807L18.7259 3.54193C19.1834 3.81102 19.253 4.041 19.253 4.24H21.253ZM19.7524 1.82548C18.8502 1.2771 17.6734 1.06 16.333 1.06V3.06C17.4992 3.06 18.2557 3.25623 18.7136 3.53452L19.7524 1.82548ZM16.333 1.06C15.6927 1.06 15.0599 1.13632 14.436 1.28848L14.9099 3.23152C15.3794 3.11701 15.8532 3.06 16.333 3.06V1.06ZM13.6732 2.2796L13.6932 3.2996L15.6928 3.2604L15.6728 2.2404L13.6732 2.2796ZM13.693 3.28C13.693 3.84395 13.6737 4.3935 13.6355 4.92875L15.6304 5.07125C15.6722 4.4865 15.693 3.88938 15.693 3.28H13.693ZM13.6355 4.92875C13.5936 5.51547 13.573 6.13944 13.573 6.8H15.573C15.573 6.18056 15.5923 5.60453 15.6304 5.07125L13.6355 4.92875ZM14.802 7.77342C14.9658 7.73487 15.1464 7.7091 15.3455 7.69862L15.2404 5.70138C14.9328 5.71757 14.6334 5.75846 14.3439 5.82658L14.802 7.77342ZM15.3977 7.69451C15.645 7.66847 15.8423 7.64556 15.9574 7.62639L15.6286 5.65361C15.5836 5.6611 15.4477 5.67819 15.1883 5.70549L15.3977 7.69451ZM15.8835 7.63589C16.4883 7.58091 17.0013 7.5087 17.3955 7.41014L16.9104 5.46986C16.6647 5.5313 16.271 5.59242 15.7024 5.64411L15.8835 7.63589ZM17.45 7.39486C18.0606 7.2049 18.5749 7.03153 18.9876 6.875L18.2783 5.005C17.9177 5.1418 17.4453 5.30176 16.8559 5.48514L17.45 7.39486ZM19.0044 6.86848C19.5041 6.66859 19.9623 6.39333 20.3762 6.0457L19.0898 4.5143C18.837 4.72667 18.5619 4.89141 18.2616 5.01152L19.0044 6.86848ZM20.3789 6.04339C20.9161 5.58882 21.253 4.97596 21.253 4.24H19.253C19.253 4.30404 19.2431 4.38451 19.087 4.51661L20.3789 6.04339Z" fill="#F7EAEA" fill-opacity="0.74" mask="url(#path-1-outside-1_9_2)"/>
</g>
<defs>
<filter id="filter0_bi_9_2" x="-3.67999" y="-3.78" width="30.033" height="20.88" filterUnits="userSpaceOnUse" color-interpolation-filters="sRGB">
<feFlood flood-opacity="0" result="BackgroundImageFix"/>
<feGaussianBlur in="BackgroundImageFix" stdDeviation="2"/>
<feComposite in2="SourceAlpha" operator="in" result="effect1_backgroundBlur_9_2"/>
<feBlend mode="normal" in="SourceGraphic" in2="effect1_backgroundBlur_9_2" result="shape"/>
<feColorMatrix in="SourceAlpha" type="matrix" values="0 0 0 0 0 0 0 0 0 0 0 0 0 0 0 0 0 0 127 0" result="hardAlpha"/>
<feOffset dy="4"/>
<feGaussianBlur stdDeviation="2"/>
<feComposite in2="hardAlpha" operator="arithmetic" k2="-1" k3="1"/>
<feColorMatrix type="matrix" values="0 0 0 0 0 0 0 0 0 0 0 0 0 0 0 0 0 0 0.25 0"/>
<feBlend mode="normal" in2="shape" result="effect2_innerShadow_9_2"/>
</filter>
</defs>
</svg>
