<svg width="23" height="14" viewBox="0 0 23 14" fill="none" xmlns="http://www.w3.org/2000/svg">
<path d="M10.56 12.7C10.3867 12.4733 10.24 12.2267 10.12 11.96C10 11.68 9.87333 11.3467 9.74 10.96C9.71333 10.8933 9.63333 10.6933 9.5 10.36C9.38 10.0267 9.24 9.74 9.08 9.5C8.24 9.62 7.55333 9.68 7.02 9.68C6.72667 9.68 6.4 9.67333 6.04 9.66C5.69333 9.63333 5.43333 9.62 5.26 9.62C4.59333 9.56667 4.06 9.54 3.66 9.54C3.5 9.75333 3.36 9.98 3.24 10.22C3.13333 10.46 2.99333 10.82 2.82 11.3C2.58 11.9933 2.37333 12.4867 2.2 12.78C2.08 12.98 1.84667 13.08 1.5 13.08C1.20667 13.08 0.933333 13.02 0.68 12.9C0.44 12.7667 0.32 12.5867 0.32 12.36C0.426667 11.8533 0.593333 11.32 0.82 10.76C1.06 10.1867 1.4 9.42667 1.84 8.48L2.64 6.52C3.08 5.4 3.48 4.44 3.84 3.64C4.21333 2.84 4.7 1.89333 5.3 0.8C5.38 0.639999 5.51333 0.506666 5.7 0.399999C5.88667 0.279999 6.09333 0.219999 6.32 0.219999C6.57333 0.219999 6.75333 0.239999 6.86 0.279999C6.98 0.306666 7.07333 0.36 7.14 0.44C7.20667 0.506666 7.30667 0.653333 7.44 0.88C7.89333 1.58667 8.28 2.31333 8.6 3.06C8.93333 3.80667 9.35333 4.84 9.86 6.16L10.28 7.22C10.6533 8.18 10.9733 8.98667 11.24 9.64C11.52 10.28 11.8267 10.8667 12.16 11.4C12.3733 11.7467 12.48 11.9867 12.48 12.12C12.48 12.44 12.38 12.6867 12.18 12.86C11.9933 13.02 11.7467 13.1 11.44 13.1C11.0533 13.1 10.76 12.9667 10.56 12.7ZM8.5 7.86C8.28667 7.40667 7.98 6.62 7.58 5.5C7.16667 4.3 6.75333 3.34667 6.34 2.64C6.08667 3.28 5.71333 4.10667 5.22 5.12C4.88667 5.74667 4.50667 6.65333 4.08 7.84C4.93333 7.94667 5.85333 8 6.84 8C7.54667 8 8.1 7.95333 8.5 7.86ZM18.913 7.7C19.3796 8.48667 19.8463 9.18667 20.313 9.8C20.793 10.4 21.4196 11.14 22.193 12.02C22.2863 12.1133 22.333 12.22 22.333 12.34C22.333 12.5267 22.2263 12.6867 22.013 12.82C21.813 12.9533 21.5663 13.02 21.273 13.02C20.8596 13.02 20.413 12.8467 19.933 12.5C19.5063 12.1933 19.1263 11.7867 18.793 11.28C18.4596 10.7733 18.073 10.1133 17.633 9.3C17.2863 8.67333 17.0796 8.30667 17.013 8.2C16.493 8.41333 15.6796 8.54667 14.573 8.6C14.573 9.05333 14.613 9.66667 14.693 10.44C14.773 11.24 14.813 11.82 14.813 12.18C14.813 12.42 14.693 12.62 14.453 12.78C14.2263 12.94 13.9663 13.02 13.673 13.02C13.3263 13.02 13.0596 12.88 12.873 12.6C12.6863 12.2267 12.5663 11.78 12.513 11.26C12.4596 10.74 12.433 10.12 12.433 9.4C12.433 8.64 12.4796 7.78 12.573 6.82C12.653 5.75333 12.693 4.96667 12.693 4.46C12.693 4.04667 12.653 3.49333 12.573 2.8C12.5596 2.68 12.5396 2.47333 12.513 2.18C12.4863 1.88667 12.473 1.62 12.473 1.38C12.473 1.19333 12.5396 1.03333 12.673 0.9C12.8196 0.753332 12.973 0.653333 13.133 0.6C14.213 0.426666 15.2663 0.34 16.293 0.34C18.0396 0.34 19.4863 0.666666 20.633 1.32C21.7796 1.97333 22.353 2.96667 22.353 4.3C22.353 4.71333 22.2596 5.11333 22.073 5.5C21.8996 5.87333 21.6596 6.18667 21.353 6.44C20.5396 7.06667 19.7263 7.48667 18.913 7.7ZM20.253 4.24C20.253 3.6 19.913 3.08 19.233 2.68C18.553 2.26667 17.5863 2.06 16.333 2.06C15.773 2.06 15.2196 2.12667 14.673 2.26L14.693 3.28C14.693 3.86667 14.673 4.44 14.633 5C14.593 5.56 14.573 6.16 14.573 6.8C14.7996 6.74667 15.0396 6.71333 15.293 6.7C15.5463 6.67333 15.713 6.65333 15.793 6.64C16.3796 6.58667 16.833 6.52 17.153 6.44C17.753 6.25333 18.2463 6.08667 18.633 5.94C19.033 5.78 19.3996 5.56 19.733 5.28C20.0796 4.98667 20.253 4.64 20.253 4.24Z" fill="url(#paint0_linear_15_3)"/>
<defs>
<linearGradient id="paint0_linear_15_3" x1="12" y1="-6" x2="12" y2="18" gradientUnits="userSpaceOnUse">
<stop stop-color="#F9E7E1"/>
<stop offset="1" stop-color="#760801"/>
</linearGradient>
</defs>
</svg>
